<svg xmlns="http://www.w3.org/2000/svg" viewBox="0 0 900 650" role="img"><defs><linearGradient id="bg" x2="1" y2="1"><stop stop-color="#e4e9e2"/><stop offset="1" stop-color="#bccac0"/></linearGradient><linearGradient id="steel" x2=".2" y2="1"><stop stop-color="#f7f9f6"/><stop offset=".48" stop-color="#81938e"/><stop offset="1" stop-color="#dae3dc"/></linearGradient><linearGradient id="dark" x2=".2" y2="1"><stop stop-color="#576e65"/><stop offset="1" stop-color="#1a3832"/></linearGradient><pattern id="grid" width="45" height="45" patternUnits="userSpaceOnUse"><path d="M45 0H0V45" fill="none" stroke="#fff" opacity=".22"/></pattern><filter id="shadow"><feDropShadow dx="8" dy="15" stdDeviation="13" flood-color="#18382c" flood-opacity=".3"/></filter></defs><rect width="900" height="650" fill="url(#bg)"/><rect width="900" height="650" fill="url(#grid)"/><g opacity=".45" fill="none" stroke="#527667"><path d="M42 48h120m-120 0v90M858 600h-120m120 0v-90" stroke-width="2"/></g><g transform="translate(340 300)" filter="url(#shadow)"><circle r="175" fill="#3e6558" stroke="#e6f0e8" stroke-width="17"/><path d="M0 -50 Q70 -180 150 -105 Q68 -113 45 -12Z" fill="url(#steel)" stroke="#506b62" stroke-width="5" transform="rotate(0)"/><path d="M0 -50 Q70 -180 150 -105 Q68 -113 45 -12Z" fill="url(#steel)" stroke="#506b62" stroke-width="5" transform="rotate(72)"/><path d="M0 -50 Q70 -180 150 -105 Q68 -113 45 -12Z" fill="url(#steel)" stroke="#506b62" stroke-width="5" transform="rotate(144)"/><path d="M0 -50 Q70 -180 150 -105 Q68 -113 45 -12Z" fill="url(#steel)" stroke="#506b62" stroke-width="5" transform="rotate(216)"/><path d="M0 -50 Q70 -180 150 -105 Q68 -113 45 -12Z" fill="url(#steel)" stroke="#506b62" stroke-width="5" transform="rotate(288)"/><circle r="66" fill="url(#dark)" stroke="#d2e0d3" stroke-width="12"/><circle r="26" fill="#b7c4bd"/></g><g transform="translate(685 350) rotate(-17)" filter="url(#shadow)"><path d="M-96 -143h190v42h-55v200h55v45h-190v-45h55v-200h-55z" fill="url(#dark)" stroke="#bed1c1" stroke-width="7"/><circle cx="-70" cy="-117" r="14" fill="#c7d5c8"/><circle cx="70" cy="118" r="14" fill="#c7d5c8"/></g><text x="48" y="602" fill="#3f6055" font-family="Arial" font-size="15" letter-spacing="4">MUGONZA  /  INDUSTRIAL</text></svg>